#!OML:ASF F:\VICON\USERDATA\INSTALL\rory3\rory3.ASF
:FULLY-SPECIFIED
:DEGREES
46
root 0.389260605433976 17.697542725418426 5.116925409434571 -2.2097823148841216 0.9957750531611975 0.6975823265847825
lfemur 12.518201086773685 -6.004608987929831 -23.947156547235107
ltibia 28.611031296210577
lfoot -2.087861023837207 -7.231987174241065
ltoes -9.940915986537563
rfemur -26.388188227203578 4.986521722825798 21.23511376169178
rtibia 28.634770066147723
rfoot -6.280217861944502 -6.499053703474046
rtoes -0.3968749985694333
lowerback 1.0 -1.3084845866834702 -3.074741773189609
upperback 0.24994247229769176 -1.8686332263900485 1.8892576080787158
thorax -4.810688166866933 -0.8751564846626336 3.543406102413397
lowerneck -16.740179991514943 -2.653982057025817 -2.291664226396351
upperneck 22.703541439949035 -3.1151972855428087 0.3645727353125509
head 10.091097146993482 -1.5907302207061087 0.021586960389592125
lclavicle -9.520786675878599e-16 -2.84254629498563e-15
lhumerus -25.89177189479299 0.3030906387595449 82.11318792218894
lradius 30.925387233227923
lwrist 7.830817667321599
lhand -29.258301011397446 22.103497582550915
lfingers nan
lthumb -2.313652578935713 52.51848054499356
rclavicle -1.0521726030752727e-15 -2.9172551588727746e-15
rhumerus -35.82218016362862 -29.570056777662064 -70.8948408991291
rradius 19.094903803705677
rwrist 9.864913192032773
rhand -18.583924716331904 1.0
rfingers nan
rthumb 7.745409644137444 -7.362450612551144
47
root 0.3190366553028854 17.813872376438436 6.044705493258032 -2.8077324190497093 0.9817841037597408 -0.8394947931942307
lfemur 9.396987542419856 -6.031517831297952 -21.98914263269858
ltibia 36.74488038873823
lfoot 3.723308011571164 -10.965825917619188
ltoes -10.312829088664765
rfemur -24.33408061473674 5.053393380364952 23.59053574908912
rtibia 30.012955423332556
rfoot -6.224571122782022 -4.67797338660486
rtoes 3.356100309062775
lowerback 1.0 -1.3056370631403904 -1.4947831786889347
upperback 0.10569581300959124 -1.6178262318832362 2.2959030633390016
thorax -5.065504248985911 -0.7787246356557764 3.0252004070161007
lowerneck -16.609902544555073 -2.591919207785689 -2.2002496436981858
upperneck 22.74632407261287 -2.9864891859419935 0.25871679841003353
head 10.109061773119471 -1.5522256670261148 -0.004916561759047838
lclavicle -1.4799708740438577e-15 -2.9136927477552865e-15
lhumerus -27.135979091920447 0.6817736153268008 82.50884032234225
lradius 30.41659987023308
lwrist 6.984799238176864
lhand -28.175886361198696 23.156072966380048
lfingers nan
lthumb -1.3719459032960108 53.49959255811923
rclavicle -1.4761685870847952e-15 -2.922868713322982e-15
rhumerus -35.75406950277773 -30.425628788185314 -70.1323843554492
rradius 18.493293822501933
rwrist 10.934168904441679
rhand -18.508443427396976 1.0
rfingers nan
rthumb 7.879215622863163 -7.336388255375075
48
root 0.2665424465389846 17.88438906716976 6.58870605308551 -3.353997244046446 0.7894769132393129 -1.8371321043026099
lfemur 4.668536275928934 -4.6665773089787415 -19.90191527754693
ltibia 45.915321639497506
lfoot 11.549941440026068 -15.489577301883283
ltoes -2.874528011487779
rfemur -22.032837561052517 5.231418219484897 25.57210531720777
rtibia 30.832056513637042
rfoot -7.411903919318763 -4.4665876589878035
rtoes 6.263585013405665
lowerback 1.0 -1.1402766613328696 -0.34301074634446227
upperback 0.10962127532757121 -1.25089873084055 2.52624758759923
thorax -5.181577426041674 -0.6284105412399987 2.458420020775286
lowerneck -16.418425736063707 -2.574894826287952 -2.082567671343999
upperneck 22.61671769470563 -2.982394499312111 0.2229884827025356
head 10.056223554874883 -1.553896292478929 -0.01816643583861116
lclavicle -1.335336059323795e-15 -2.993049516015156e-15
lhumerus -28.441834540479086 0.9126706277000123 82.87052580643963
lradius 29.790007675184945
lwrist 6.009060769850732
lhand -27.49915486156996 23.796447098622462
lfingers nan
lthumb -0.8067557901210067 54.10869292775033
rclavicle -1.4786907268925099e-15 -3.1378754235312416e-15
rhumerus -35.46383900445086 -30.661574570640067 -70.04557719602113
rradius 18.218201514168705
rwrist 11.2345339833198
rhand -18.357884535873737 1.0
rfingers nan
rthumb 8.01154137362189 -7.34283754985659
49
root 0.2015949553240559 17.99676216873209 6.9512159397824025 -3.7790724437408474 0.5654691924126405 -3.1511343098361175
lfemur -1.7264624045161954 -3.2011709409008664 -17.360480349669785
ltibia 55.936466349759215
lfoot 15.056719097042432 -15.219624651155282
ltoes 2.180033135999865
rfemur -18.83010368629822 5.771205567252638 27.724593764662533
rtibia 30.32186277962256
rfoot -8.842162654941436 -4.770882765383438
rtoes 7.162704013791604
lowerback 1.0 -0.8936008305563243 0.9978767640749384
upperback 0.15169465338144017 -0.7968520819854108 2.6503866818858475
thorax -5.256057603596336 -0.42156104085659657 1.8428306266972903
lowerneck -16.286502353692708 -2.5826913991087226 -1.9679221326172005
upperneck 22.496093416070405 -3.034183892956279 0.23734621699492975
head 9.986868363386 -1.5678910790311935 -0.026229096453808193
lclavicle -1.04702024049554e-15 -2.7729912641189977e-15
lhumerus -29.642884267534924 1.1118061892713156 83.1594686226325
lradius 29.045666597093273
lwrist 5.402232464228717
lhand -27.21808908147245 23.977635054180105
lfingers nan
lthumb -0.5955288307145506 54.24103463271734
rclavicle -1.3553540441555383e-15 -3.070944408723615e-15
rhumerus -34.79818997427539 -30.238182226682426 -70.67212044442121
rradius 18.20945828900979
rwrist 11.027389964752373
rhand -18.21400061688154 1.0
rfingers nan
rthumb 8.106168882377242 -7.4222991636570015
50
root 0.1321530230366345 18.106881478501116 7.144852662521737 -3.9814284382835226 0.4986399132105499 -4.088285295711246
lfemur -7.8628223302367335 -1.636884188696756 -15.56996989397641
ltibia 64.05628314216577
lfoot 10.870294558291953 -14.414141277698494
ltoes 2.5113141986396887
rfemur -15.4791716074628 6.167984831143916 29.471035306411892
rtibia 29.4837951670035
rfoot -10.419842719338396 -4.8669091831752915
rtoes 7.127141327451666
lowerback 1.0 -0.6319826914828273 1.8796645309097628
upperback 0.19904448862178092 -0.39844591963169784 2.6406754812763866
thorax -5.309206073367775 -0.2394922841867782 1.328536051017959
lowerneck -16.065543615564188 -2.6226750064422815 -1.8750267525564217
upperneck 22.349999938500883 -3.1565427622960165 0.2886121267744395
head 9.895341572608277 -1.6023819690905714 -0.032538419937009344
lclavicle -1.4725078811711878e-15 -2.924107393936575e-15
lhumerus -30.73753780461246 1.3485410348578086 83.34125211914665
lradius 28.27282456568319
lwrist 5.228113608299557
lhand -27.15206975837448 23.957459288069874
lfingers nan
lthumb -0.54453329682227 54.18003087137493
rclavicle -1.5063581095028883e-15 -3.031607977517834e-15
rhumerus -33.719482501249196 -29.215094259994252 -71.86918477205298
rradius 18.428224674565598
rwrist 10.342098523396508
rhand -18.024516291637283 1.0
rfingers nan
rthumb 8.238248696820206 -7.496676087644237
